<svg xmlns="http://www.w3.org/2000/svg" viewBox="0 0 1920 1080" role="img" aria-labelledby="board-title board-desc"><title id="board-title">Three channels, one shared support</title><desc id="board-desc">The same three channels seen from closer and lower. A single continuous member is now visible beneath all three, so the separate paths are seen to rest on one shared support. No decision, mechanism or outcome is shown.</desc><rect x="0" y="0" width="1920" height="1080" fill="#fbfbfa"/><path d="M 188.21 1053.09 L 1731.79 1053.09 L 1587.08 940.68 L 332.92 940.68 Z" fill="#dde0e0" stroke="#9ba2a2" stroke-width="1.5" stroke-linecap="butt" stroke-linejoin="miter"/><path d="M 188.21 1053.09 L 1731.79 1053.09 L 1731.79 1175.14 L 188.21 1175.14 Z" fill="#c2c7c7" stroke="#737b7b" stroke-width="1.5" stroke-linecap="butt" stroke-linejoin="miter"/><path d="M 418.31 909.50 L 568.36 909.50 L 568.36 1053.09 L 418.31 1053.09 Z" fill="#dde0e0" stroke="#737b7b" stroke-width="1.5" stroke-linecap="butt" stroke-linejoin="miter"/><path d="M 884.97 909.50 L 1035.03 909.50 L 1035.03 1053.09 L 884.97 1053.09 Z" fill="#dde0e0" stroke="#737b7b" stroke-width="1.5" stroke-linecap="butt" stroke-linejoin="miter"/><path d="M 1351.64 909.50 L 1501.69 909.50 L 1501.69 1053.09 L 1351.64 1053.09 Z" fill="#dde0e0" stroke="#737b7b" stroke-width="1.5" stroke-linecap="butt" stroke-linejoin="miter"/><path d="M 356.92 830.52 L 629.74 830.52 L 909.29 511.47 L 867.40 511.47 Z" fill="#fbfbfa" stroke="#c2c7c7" stroke-width="1.5" stroke-linecap="butt" stroke-linejoin="miter"/><path d="M 356.92 830.52 L 629.74 830.52 L 629.74 909.50 L 356.92 909.50 Z" fill="#eef0f0" stroke="#9ba2a2" stroke-width="1.5" stroke-linecap="butt" stroke-linejoin="miter"/><line x1="493.33" y1="830.52" x2="888.35" y2="511.47" stroke="#c2c7c7" stroke-width="1" stroke-linecap="butt"/><path d="M 823.59 830.52 L 1096.41 830.52 L 980.94 511.47 L 939.06 511.47 Z" fill="#fbfbfa" stroke="#c2c7c7" stroke-width="1.5" stroke-linecap="butt" stroke-linejoin="miter"/><path d="M 823.59 830.52 L 1096.41 830.52 L 1096.41 909.50 L 823.59 909.50 Z" fill="#eef0f0" stroke="#9ba2a2" stroke-width="1.5" stroke-linecap="butt" stroke-linejoin="miter"/><line x1="960" y1="830.52" x2="960" y2="511.47" stroke="#c2c7c7" stroke-width="1" stroke-linecap="butt"/><path d="M 1290.26 830.52 L 1563.08 830.52 L 1052.60 511.47 L 1010.71 511.47 Z" fill="#fbfbfa" stroke="#c2c7c7" stroke-width="1.5" stroke-linecap="butt" stroke-linejoin="miter"/><path d="M 1290.26 830.52 L 1563.08 830.52 L 1563.08 909.50 L 1290.26 909.50 Z" fill="#eef0f0" stroke="#9ba2a2" stroke-width="1.5" stroke-linecap="butt" stroke-linejoin="miter"/><line x1="1426.67" y1="830.52" x2="1031.65" y2="511.47" stroke="#c2c7c7" stroke-width="1" stroke-linecap="butt"/><path d="M 541.31 618.46 L 698.32 618.46 L 736.00 594.72 L 601.60 594.72 Z" fill="#f7f8f8" stroke="#515858" stroke-width="1.5" stroke-linecap="butt" stroke-linejoin="miter"/><path d="M 541.31 618.46 L 698.32 618.46 L 698.32 728.37 L 541.31 728.37 Z" fill="#343a3a" stroke="#0b0d0e" stroke-width="1.5" stroke-linecap="butt" stroke-linejoin="miter"/><path d="M 892.80 594.72 L 1027.20 594.72 L 1018.74 576.96 L 901.26 576.96 Z" fill="#f7f8f8" stroke="#515858" stroke-width="1.5" stroke-linecap="butt" stroke-linejoin="miter"/><path d="M 892.80 594.72 L 1027.20 594.72 L 1027.20 688.80 L 892.80 688.80 Z" fill="#343a3a" stroke="#0b0d0e" stroke-width="1.5" stroke-linecap="butt" stroke-linejoin="miter"/><path d="M 1205.61 608.34 L 1352.98 608.34 L 1299.39 587.24 L 1172.12 587.24 Z" fill="#f7f8f8" stroke="#515858" stroke-width="1.5" stroke-linecap="butt" stroke-linejoin="miter"/><path d="M 1205.61 608.34 L 1352.98 608.34 L 1352.98 711.49 L 1205.61 711.49 Z" fill="#343a3a" stroke="#0b0d0e" stroke-width="1.5" stroke-linecap="butt" stroke-linejoin="miter"/></svg>
